<?xml version="1.0" encoding="utf-8"?>
<svg version="1.1" id="Lager_1" xmlns="http://www.w3.org/2000/svg" xmlns:xlink="http://www.w3.org/1999/xlink" x="0px" y="0px"
	 viewBox="0 0 123.39 48.3" style="enable-background:new 0 0 123.39 48.3;" xml:space="preserve">
<style type="text/css">
	.st0{fill:#FFFFFF;}
</style>
<g>
	<path class="st0" d="M6.63,7.78h4.08v14.16h16.51V7.78h4.08v32.74h-4.08V25.54H10.71v14.98H6.63V7.78z"/>
	<path class="st0" d="M56.41,39.94c-0.74,0.22-1.5,0.42-2.28,0.58c-0.79,0.16-1.65,0.3-2.59,0.43c-0.94,0.13-1.93,0.19-2.95,0.19
		c-1.6,0-3.09-0.22-4.46-0.67c-1.38-0.45-2.58-1.17-3.6-2.16c-1.02-0.99-1.83-2.28-2.42-3.86c-0.59-1.58-0.89-3.53-0.89-5.83
		c0-2.08,0.29-3.91,0.86-5.5c0.58-1.58,1.37-2.91,2.38-3.98c1.01-1.07,2.19-1.88,3.55-2.42c1.36-0.54,2.84-0.82,4.44-0.82
		c1.57,0,2.93,0.3,4.08,0.91c1.15,0.61,2.1,1.43,2.86,2.47c0.75,1.04,1.31,2.26,1.68,3.65c0.37,1.39,0.55,2.86,0.55,4.39l-0.72,2.11
		h-15.5c0,0.99,0.13,1.98,0.38,2.98c0.26,0.99,0.7,1.89,1.32,2.69s1.44,1.45,2.45,1.94c1.01,0.5,2.26,0.74,3.77,0.74
		c0.96,0,1.84-0.05,2.64-0.17c0.8-0.11,1.5-0.24,2.09-0.38c0.59-0.14,1.14-0.31,1.66-0.5L56.41,39.94z M53.62,26.36
		c0-0.22-0.05-0.72-0.14-1.49c-0.1-0.77-0.32-1.57-0.67-2.4c-0.35-0.83-0.9-1.58-1.63-2.23c-0.74-0.66-1.71-0.98-2.93-0.98
		c-1.34,0-2.45,0.28-3.31,0.84c-0.86,0.56-1.55,1.22-2.06,1.99c-0.51,0.77-0.86,1.55-1.06,2.35c-0.19,0.8-0.29,1.44-0.29,1.92H53.62
		z"/>
	<path class="st0" d="M76.23,38.26c-1.5,0.86-2.9,1.56-4.2,2.09c-1.3,0.53-2.7,0.79-4.2,0.79c-2.14,0-3.85-0.52-5.11-1.56
		c-1.26-1.04-1.9-2.76-1.9-5.16c0-1.25,0.32-2.34,0.96-3.26c0.64-0.93,1.48-1.7,2.52-2.33c1.04-0.62,2.22-1.11,3.53-1.46
		c1.31-0.35,2.66-0.58,4.03-0.67c0.58-0.06,1.33-0.12,2.26-0.17c0.93-0.05,1.65-0.09,2.16-0.12c0-1.12-0.03-2.12-0.1-3
		c-0.06-0.88-0.26-1.63-0.58-2.26s-0.79-1.1-1.42-1.42c-0.62-0.32-1.51-0.48-2.66-0.48c-0.93,0-1.82,0.06-2.69,0.17
		s-1.63,0.23-2.3,0.36c-0.8,0.16-1.54,0.34-2.21,0.53L63.56,17c0.8-0.19,1.66-0.37,2.59-0.53c0.8-0.16,1.73-0.3,2.78-0.41
		c1.06-0.11,2.19-0.17,3.41-0.17c1.63,0,2.95,0.24,3.96,0.72c1.01,0.48,1.79,1.13,2.35,1.94c0.56,0.82,0.94,1.74,1.15,2.78
		s0.31,2.14,0.31,3.29v11.52c0,0.45,0.01,0.92,0.02,1.42c0.02,0.5,0.05,0.98,0.1,1.46c0.05,0.48,0.1,0.98,0.17,1.49l-3.7,0.38
		L76.23,38.26z M76.28,29.43c-0.64,0.03-1.25,0.06-1.82,0.1c-0.58,0.03-1.14,0.07-1.7,0.12c-0.56,0.05-1.06,0.1-1.51,0.17
		c-2.3,0.29-3.94,0.79-4.9,1.51c-0.96,0.72-1.44,1.75-1.44,3.1c0,1.12,0.34,1.96,1.03,2.52c0.69,0.56,1.59,0.84,2.71,0.84
		c1.54,0,2.9-0.26,4.1-0.79c1.2-0.53,2.38-1.22,3.53-2.09V29.43z"/>
	<path class="st0" d="M102.01,38.6c-0.74,0.51-1.45,0.94-2.14,1.27c-0.69,0.34-1.44,0.63-2.26,0.89c-0.82,0.26-1.61,0.38-2.38,0.38
		c-3.01,0-5.37-1.06-7.08-3.19c-1.71-2.13-2.57-5.24-2.57-9.34c0-2.43,0.39-4.46,1.18-6.1s1.77-2.94,2.95-3.91
		c1.18-0.98,2.46-1.67,3.82-2.09c1.36-0.42,2.62-0.62,3.77-0.62c0.58,0,1.18,0.04,1.82,0.12c0.64,0.08,1.58,0.28,2.83,0.6V4.56
		l3.84-0.43v32.02c0,0.45,0.01,0.92,0.02,1.42c0.02,0.5,0.05,0.98,0.1,1.46c0.05,0.48,0.1,0.98,0.17,1.49l-3.7,0.38L102.01,38.6z
		 M101.96,19.97c-1.15-0.32-2.05-0.52-2.69-0.6c-0.64-0.08-1.3-0.12-1.97-0.12c-1.34,0-2.5,0.24-3.46,0.72
		c-0.96,0.48-1.75,1.14-2.38,1.99s-1.08,1.82-1.37,2.93c-0.29,1.1-0.43,2.28-0.43,3.53c0,1.12,0.12,2.24,0.36,3.36
		c0.24,1.12,0.62,2.13,1.13,3.02c0.51,0.9,1.14,1.62,1.87,2.16s1.62,0.82,2.64,0.82c0.7,0,1.43-0.13,2.18-0.38
		c0.75-0.26,1.45-0.55,2.09-0.89c0.64-0.34,1.31-0.76,2.02-1.27V19.97z"/>
	<path class="st0" d="M111.75,37.68c0-0.77,0.27-1.43,0.82-1.99c0.54-0.56,1.22-0.84,2.02-0.84c0.83,0,1.54,0.28,2.11,0.84
		c0.58,0.56,0.86,1.22,0.86,1.99c0,0.8-0.29,1.47-0.86,2.02c-0.58,0.54-1.28,0.82-2.11,0.82c-0.8,0-1.47-0.27-2.02-0.82
		C112.02,39.16,111.75,38.48,111.75,37.68z"/>
</g>
</svg>
