<?xml version="1.0" encoding="utf-8"?>
<svg version="1.1" id="Lager_1" xmlns="http://www.w3.org/2000/svg" xmlns:xlink="http://www.w3.org/1999/xlink" x="0px" y="0px"
	 viewBox="0 0 123.39 48.3" style="enable-background:new 0 0 123.39 48.3;" xml:space="preserve">
<style type="text/css">
	.st0{fill:#FFFFFF;}
</style>
<g>
	<path class="st0" d="M27.06,9.34c0.45-0.08,0.91-0.12,1.39-0.12c0.93,0,1.62,0.18,2.09,0.53c0.46,0.35,0.7,0.98,0.7,1.87V38.6
		c-0.26,0.1-0.6,0.18-1.03,0.26c-0.43,0.08-0.89,0.12-1.37,0.12c-0.99,0-1.7-0.18-2.14-0.55c-0.43-0.37-0.65-0.98-0.65-1.85V26.07
		H12.66V38.6c-0.26,0.1-0.59,0.18-1.01,0.26c-0.42,0.08-0.88,0.12-1.39,0.12c-0.99,0-1.7-0.18-2.14-0.55
		c-0.43-0.37-0.65-0.98-0.65-1.85V9.56c0.26-0.06,0.6-0.14,1.03-0.22C8.94,9.27,9.4,9.22,9.88,9.22c0.93,0,1.62,0.18,2.09,0.53
		c0.46,0.35,0.7,0.98,0.7,1.87V21.9h13.39V9.56C26.28,9.5,26.61,9.42,27.06,9.34z"/>
	<path class="st0" d="M42.37,30.01c0.45,1.82,1.32,3.18,2.62,4.06c1.3,0.88,2.95,1.32,4.97,1.32c1.34,0,2.58-0.21,3.7-0.62
		c1.12-0.42,2.02-0.86,2.69-1.34c0.9,0.51,1.34,1.23,1.34,2.16c0,0.54-0.21,1.05-0.62,1.51c-0.42,0.46-0.98,0.86-1.7,1.2
		c-0.72,0.34-1.57,0.6-2.54,0.79c-0.98,0.19-2.02,0.29-3.14,0.29c-1.86,0-3.54-0.26-5.06-0.77c-1.52-0.51-2.82-1.28-3.91-2.3
		c-1.09-1.02-1.93-2.29-2.52-3.79c-0.59-1.5-0.89-3.25-0.89-5.23c0-1.92,0.29-3.61,0.86-5.06c0.58-1.46,1.36-2.67,2.35-3.65
		c0.99-0.98,2.16-1.72,3.5-2.23c1.34-0.51,2.78-0.77,4.32-0.77c1.54,0,2.94,0.25,4.2,0.74c1.26,0.5,2.35,1.18,3.26,2.06
		c0.91,0.88,1.62,1.93,2.11,3.14c0.5,1.22,0.74,2.54,0.74,3.98c0,0.8-0.19,1.38-0.58,1.75c-0.38,0.37-0.94,0.62-1.68,0.74
		L42.37,30.01z M48.33,19.45c-1.76,0-3.22,0.59-4.39,1.78c-1.17,1.18-1.78,2.88-1.85,5.09l11.81-1.68
		c-0.13-1.44-0.66-2.66-1.58-3.67C51.38,19.95,50.05,19.45,48.33,19.45z"/>
	<path class="st0" d="M72.13,15.56c2.98,0,5.34,0.65,7.1,1.94c1.76,1.3,2.64,3.34,2.64,6.12v11.18c0,0.74-0.17,1.3-0.5,1.7
		c-0.34,0.4-0.79,0.78-1.37,1.13c-0.83,0.48-1.9,0.9-3.22,1.25c-1.31,0.35-2.83,0.53-4.56,0.53c-3.1,0-5.53-0.61-7.27-1.82
		s-2.62-3.01-2.62-5.38c0-2.11,0.68-3.73,2.04-4.85c1.36-1.12,3.32-1.81,5.88-2.06l6.67-0.67v-1.06c0-1.41-0.46-2.43-1.37-3.07
		c-0.91-0.64-2.18-0.96-3.82-0.96c-1.28,0-2.51,0.18-3.7,0.53c-1.18,0.35-2.24,0.75-3.17,1.2c-0.32-0.26-0.59-0.57-0.82-0.94
		c-0.22-0.37-0.34-0.78-0.34-1.22c0-0.54,0.14-0.99,0.41-1.34c0.27-0.35,0.7-0.66,1.27-0.91c0.9-0.45,1.92-0.78,3.07-0.98
		C69.64,15.67,70.85,15.56,72.13,15.56z M72.23,35.48c1.12,0,2.1-0.11,2.93-0.34c0.83-0.22,1.42-0.46,1.78-0.72v-6.1l-5.23,0.53
		c-1.47,0.16-2.58,0.49-3.31,0.98c-0.74,0.5-1.1,1.26-1.1,2.28c0,1.06,0.4,1.88,1.2,2.47C69.28,35.19,70.53,35.48,72.23,35.48z"/>
	<path class="st0" d="M98.39,15.56c0.96,0,1.86,0.1,2.71,0.31c0.85,0.21,1.59,0.47,2.23,0.79V7.54c0.22-0.06,0.54-0.14,0.96-0.24
		c0.42-0.1,0.86-0.14,1.34-0.14c0.93,0,1.62,0.18,2.06,0.53c0.45,0.35,0.67,0.94,0.67,1.78v25.15c0,0.67-0.14,1.22-0.43,1.66
		c-0.29,0.43-0.74,0.84-1.34,1.22c-0.74,0.48-1.74,0.91-3,1.3c-1.26,0.38-2.71,0.58-4.34,0.58c-1.82,0-3.49-0.23-4.99-0.7
		c-1.5-0.46-2.78-1.18-3.84-2.16c-1.06-0.98-1.87-2.21-2.45-3.7c-0.58-1.49-0.86-3.24-0.86-5.26c0-2.08,0.3-3.88,0.89-5.4
		c0.59-1.52,1.4-2.77,2.42-3.74c1.02-0.98,2.22-1.7,3.58-2.16C95.36,15.79,96.82,15.56,98.39,15.56z M103.38,20.89
		c-0.54-0.35-1.18-0.66-1.92-0.91c-0.74-0.26-1.55-0.38-2.45-0.38c-0.96,0-1.85,0.14-2.66,0.43s-1.53,0.76-2.14,1.42
		c-0.61,0.66-1.09,1.49-1.44,2.5c-0.35,1.01-0.53,2.23-0.53,3.67c0,2.69,0.63,4.64,1.9,5.86c1.26,1.22,2.95,1.82,5.06,1.82
		c0.96,0,1.77-0.1,2.42-0.31c0.66-0.21,1.24-0.46,1.75-0.74V20.89z"/>
	<path class="st0" d="M112.65,36.15c0-0.93,0.28-1.7,0.84-2.3c0.56-0.61,1.34-0.91,2.33-0.91c1.02,0,1.81,0.3,2.35,0.91
		c0.54,0.61,0.82,1.38,0.82,2.3c0,0.93-0.27,1.7-0.82,2.3c-0.54,0.61-1.33,0.91-2.35,0.91c-0.99,0-1.77-0.3-2.33-0.91
		C112.92,37.85,112.65,37.08,112.65,36.15z"/>
</g>
</svg>
